<svg width="18" height="18" viewBox="0 0 18 18" fill="none" xmlns="http://www.w3.org/2000/svg">
<path fill-rule="evenodd" clip-rule="evenodd" d="M8.20469 0.000508635C8.18545 0.00191935 8.1663 0.00425331 8.14729 0.00754563C8.11212 0.0128362 8.07752 0.0212839 8.04389 0.0328213C7.77913 0.0387037 7.51384 0.0333905 7.25115 0.0649905C5.47558 0.27892 3.77088 1.06883 2.43269 2.39725C-0.243707 5.05412 -0.77311 9.19765 1.15052 12.4409C2.63379 14.9417 5.28841 16.4028 8.08295 16.4574H8.08528C8.20879 16.4949 8.3412 16.4908 8.46212 16.4457C9.16844 16.4268 9.87861 16.3437 10.5807 16.1355C10.6572 16.1156 10.7289 16.0805 10.7916 16.0323C10.8543 15.9841 10.9066 15.9238 10.9455 15.8549C10.9843 15.7861 11.0089 15.7101 11.0178 15.6316C11.0266 15.5531 11.0196 15.4736 10.997 15.3978C10.9745 15.322 10.937 15.2516 10.8866 15.1906C10.8363 15.1297 10.7742 15.0795 10.704 15.0431C10.6339 15.0066 10.5571 14.9847 10.4783 14.9785C10.3994 14.9724 10.3202 14.9821 10.2452 15.0073C9.62755 15.1904 9.00424 15.2607 8.384 15.2738C8.00511 15.0169 7.36979 14.3072 6.86745 13.1874C6.68102 12.7718 6.51959 12.2849 6.37343 11.7697H8.82969C8.90843 11.772 8.98684 11.7585 9.06026 11.73C9.13369 11.7014 9.20064 11.6585 9.25716 11.6036C9.31367 11.5488 9.3586 11.4832 9.38928 11.4106C9.41996 11.3381 9.43574 11.2602 9.43574 11.1814C9.43574 11.1027 9.41996 11.0247 9.38928 10.9522C9.3586 10.8797 9.31367 10.8141 9.25716 10.7592C9.20064 10.7044 9.13369 10.6614 9.06026 10.6329C8.98684 10.6044 8.90843 10.5909 8.82969 10.5932H6.10452C5.97626 9.86991 5.88853 9.0935 5.88853 8.2404C5.88853 7.38336 5.97559 6.60756 6.10452 5.88745H10.2957C10.481 6.79536 10.5944 7.78615 10.5944 8.82863C10.5924 8.90709 10.6062 8.98513 10.6349 9.05819C10.6635 9.13126 10.7065 9.19789 10.7613 9.25408C10.8162 9.31027 10.8817 9.35492 10.954 9.38541C11.0264 9.4159 11.1041 9.43158 11.1826 9.43158C11.2611 9.43158 11.3389 9.4159 11.4112 9.38541C11.4836 9.35492 11.5491 9.31027 11.6039 9.25408C11.6587 9.19789 11.7017 9.13126 11.7304 9.05819C11.7591 8.98513 11.7728 8.90709 11.7709 8.82863C11.7709 7.78981 11.6607 6.80512 11.4882 5.88745H14.8844C15.3747 7.27231 15.4467 8.80887 14.9946 10.2946C14.9693 10.3693 14.9593 10.4483 14.9652 10.527C14.9711 10.6056 14.9928 10.6823 15.0289 10.7524C15.065 10.8225 15.1148 10.8846 15.1755 10.9351C15.2361 10.9855 15.3062 11.0233 15.3818 11.0461C15.4573 11.069 15.5367 11.0764 15.6151 11.0679C15.6935 11.0594 15.7695 11.0353 15.8384 10.9969C15.9073 10.9585 15.9678 10.9067 16.0162 10.8444C16.0647 10.7822 16.1002 10.7109 16.1205 10.6347C17.2181 7.02744 15.719 3.13127 12.4877 1.18617C11.2178 0.421723 9.80579 0.0458792 8.39764 0.018891C8.34142 0.00430496 8.28334 -0.00190916 8.2253 0.000508635C8.2184 0.000387242 8.2116 0.000387242 8.20469 0.000508635ZM8.23683 1.33093C8.60236 1.69479 9.17028 2.47973 9.60861 3.56668C9.75068 3.919 9.88365 4.30401 10.0038 4.71098H6.37562C6.5203 4.20869 6.68098 3.73463 6.86505 3.32771C7.30079 2.3644 7.83322 1.69055 8.23683 1.33093ZM9.81082 1.36762C10.5257 1.53138 11.2258 1.79807 11.8811 2.19253C12.934 2.82632 13.7709 3.7018 14.3535 4.71091H11.2148C11.0621 4.14776 10.8941 3.60879 10.7001 3.12773C10.423 2.44072 10.1278 1.858 9.81082 1.36762ZM6.62838 1.38601C6.33451 1.80124 6.04952 2.27575 5.79198 2.8451C5.54448 3.39228 5.33489 4.0284 5.15779 4.71091H2.14769C2.4541 4.1828 2.80997 3.6777 3.25982 3.23113C4.21365 2.28426 5.38853 1.67651 6.62838 1.38601ZM1.60771 5.86441C1.66149 5.87992 1.71721 5.88767 1.77319 5.88745H4.91426C4.79452 6.61954 4.71206 7.39354 4.71206 8.2404C4.71206 9.08452 4.79523 9.85846 4.91426 10.5933H1.77319C1.71469 10.5939 1.65661 10.6032 1.60085 10.6208C1.04125 9.06532 1.06151 7.38819 1.60771 5.86441ZM2.12934 11.7698H5.15553C5.33331 12.4645 5.54265 13.1119 5.79202 13.6678C6.04141 14.2237 6.31447 14.6871 6.59854 15.0947C4.78693 14.662 3.16598 13.5307 2.16381 11.841C2.15016 11.818 2.14275 11.793 2.12934 11.7698Z" fill="#D3D3D3"/>
<path d="M11.1646 10.5934C10.7532 10.6011 10.4765 11.0179 10.6292 11.4L12.9822 17.2823C13.1982 17.8268 13.9905 17.7555 14.1058 17.1812L14.6228 14.6238L17.1734 14.1114C17.7484 13.9975 17.8213 13.2046 17.2768 12.9877L11.3944 10.6348C11.3213 10.6058 11.2432 10.5917 11.1646 10.5934Z" fill="#D3D3D3"/>
</svg>
