<svg width="12" height="12" viewBox="0 0 12 12" fill="none" xmlns="http://www.w3.org/2000/svg">
<path d="M12 6C12 9.31371 9.31371 12 6 12C2.68629 12 0 9.31371 0 6C0 2.68629 2.68629 0 6 0C9.31371 0 12 2.68629 12 6Z" fill="#FF6058"/>
<path d="M11.5 6C11.5 2.96243 9.03757 0.5 6 0.5C2.96243 0.5 0.5 2.96243 0.5 6C0.5 9.03757 2.96243 11.5 6 11.5V12C2.68629 12 0 9.31371 0 6C0 2.68629 2.68629 0 6 0C9.31371 0 12 2.68629 12 6C12 9.31371 9.31371 12 6 12V11.5C9.03757 11.5 11.5 9.03757 11.5 6Z" fill="#E14942"/>
<path d="M8.17574 3.17574C8.41005 2.94142 8.78908 2.94142 9.02339 3.17574C9.25771 3.41005 9.25771 3.78908 9.02339 4.02339L6.94722 6.09956L9.02339 8.17574C9.25771 8.41005 9.25771 8.78908 9.02339 9.02339C8.78908 9.25771 8.41005 9.25771 8.17574 9.02339L6.09956 6.94722L4.02339 9.02339C3.78908 9.25771 3.41005 9.25771 3.17574 9.02339C2.94142 8.78908 2.94142 8.41005 3.17574 8.17574L5.25191 6.09956L3.17574 4.02339C2.94142 3.78908 2.94142 3.41005 3.17574 3.17574C3.41005 2.94142 3.78908 2.94142 4.02339 3.17574L6.09956 5.25191L8.17574 3.17574Z" fill="#941100"/>
</svg>
