<svg width="22" height="22" viewBox="0 0 22 22" fill="none" xmlns="http://www.w3.org/2000/svg">
<path d="M10.7497 0C11.6157 0 12.3904 0.277033 13.2262 0.746094C14.0446 1.20537 14.9834 1.88594 16.1676 2.74219L17.6081 3.7832C18.5593 4.47098 19.3178 5.01827 19.8883 5.52441C20.4709 6.04125 20.9068 6.55698 21.1833 7.20508C21.4603 7.85463 21.5271 8.52046 21.4899 9.28809C21.4536 10.0377 21.3134 10.944 21.1393 12.0771L20.8385 14.0361C20.5914 15.6444 20.3968 16.9227 20.109 17.916C19.8146 18.932 19.3991 19.7389 18.6579 20.3555C17.9198 20.9692 17.0404 21.2426 15.9665 21.373C14.9111 21.5012 13.5769 21.5 11.8883 21.5H9.61099C7.92244 21.5 6.58824 21.5012 5.53287 21.373C4.45889 21.2426 3.57956 20.9692 2.84146 20.3555C2.10021 19.7389 1.68468 18.932 1.39029 17.916C1.10249 16.9227 0.907948 15.6444 0.660798 14.0361L0.360016 12.0771C0.185879 10.944 0.0457263 10.0377 0.00943052 9.28809C-0.0277339 8.52046 0.0390271 7.85463 0.316071 7.20508C0.592514 6.55698 1.02848 6.04125 1.61099 5.52441C2.18152 5.01827 2.94002 4.47098 3.89127 3.7832L5.3317 2.74219C6.51593 1.88594 7.45474 1.20537 8.2731 0.746094C9.10898 0.277033 9.8836 0 10.7497 0ZM10.7497 1.5C10.2327 1.5 9.71596 1.65615 9.00748 2.05371C8.28158 2.46106 7.42237 3.08115 6.20963 3.95801L4.77017 4.99902C3.79466 5.70435 3.10764 6.20152 2.60611 6.64648C2.11652 7.08087 1.85382 7.42382 1.69595 7.79395C1.53875 8.16261 1.47671 8.58038 1.50748 9.21582C1.53914 9.86926 1.6636 10.6858 1.84244 11.8496L2.14322 13.8086C2.39648 15.4567 2.57734 16.6212 2.8317 17.499C3.07948 18.354 3.37385 18.8473 3.80045 19.2021C4.23015 19.5595 4.78847 19.7714 5.71353 19.8838C6.65754 19.9984 7.88477 20 9.61099 20H11.8883C13.6146 20 14.8418 19.9984 15.7858 19.8838C16.7109 19.7714 17.2692 19.5595 17.6989 19.2021C18.1255 18.8473 18.4198 18.354 18.6676 17.499C18.922 16.6212 19.1028 15.4567 19.3561 13.8086L19.6569 11.8496C19.8357 10.6858 19.9602 9.86926 19.9919 9.21582C20.0226 8.58039 19.9606 8.16261 19.8034 7.79395C19.6455 7.42382 19.3828 7.08087 18.8932 6.64648C18.3917 6.20152 17.7047 5.70435 16.7292 4.99902L15.2897 3.95801C14.077 3.08115 13.2177 2.46105 12.4919 2.05371C11.7834 1.65615 11.2666 1.5 10.7497 1.5ZM9.99967 16.75V13.75C9.99967 13.3358 10.3355 13 10.7497 13C11.1639 13 11.4997 13.3358 11.4997 13.75V16.75C11.4997 17.1642 11.1639 17.5 10.7497 17.5C10.3355 17.5 9.99967 17.1642 9.99967 16.75Z" fill="white"/>
</svg>
