<svg width="20" height="20" viewBox="0 0 20 20" fill="none" xmlns="http://www.w3.org/2000/svg">
<path d="M8.33398 15.8333C8.33398 14.913 9.07967 14.1665 10 14.1663C10.9205 14.1663 11.667 14.9129 11.667 15.8333C11.667 16.7538 10.9205 17.5003 10 17.5003C9.07968 17.5002 8.33398 16.7537 8.33398 15.8333ZM8.33398 10.0003C8.33398 9.07996 9.07967 8.33351 10 8.33333C10.9205 8.33333 11.667 9.07985 11.667 10.0003C11.6668 10.9207 10.9204 11.6663 10 11.6663C9.07978 11.6662 8.33416 10.9205 8.33398 10.0003ZM8.33398 4.16634C8.33416 3.24613 9.07978 2.5005 10 2.50033C10.9204 2.50033 11.6668 3.24602 11.667 4.16634C11.667 5.08682 10.9205 5.83333 10 5.83333C9.07968 5.83316 8.33398 5.08671 8.33398 4.16634Z" fill="white"/>
</svg>
