<svg width="12" height="12" viewBox="0 0 12 12" fill="none" xmlns="http://www.w3.org/2000/svg">
<path d="M12 6C12 9.31371 9.31371 12 6 12C2.68629 12 0 9.31371 0 6C0 2.68629 2.68629 0 6 0C9.31371 0 12 2.68629 12 6Z" fill="#27CA40"/>
<path d="M11.5 6C11.5 2.96243 9.03757 0.5 6 0.5C2.96243 0.5 0.5 2.96243 0.5 6C0.5 9.03757 2.96243 11.5 6 11.5V12C2.68629 12 0 9.31371 0 6C0 2.68629 2.68629 0 6 0C9.31371 0 12 2.68629 12 6C12 9.31371 9.31371 12 6 12V11.5C9.03757 11.5 11.5 9.03757 11.5 6Z" fill="#3EAF3F"/>
<path d="M7 3L3 7V3H7Z" fill="#006F00"/>
<path d="M9 5L5 9H9V5Z" fill="#006F00"/>
</svg>
