<svg width="22" height="22" viewBox="0 0 22 22" fill="none" xmlns="http://www.w3.org/2000/svg">
<path d="M20 10.75C20 5.64137 15.8586 1.5 10.75 1.5C5.64137 1.5 1.5 5.64137 1.5 10.75C1.5 15.8586 5.64137 20 10.75 20C15.8586 20 20 15.8586 20 10.75ZM10 14.75V11.5H6.75C6.33579 11.5 6 11.1642 6 10.75C6 10.3358 6.33579 10 6.75 10H10V6.75C10 6.33579 10.3358 6 10.75 6C11.1642 6 11.5 6.33579 11.5 6.75V10H14.75C15.1642 10 15.5 10.3358 15.5 10.75C15.5 11.1642 15.1642 11.5 14.75 11.5H11.5V14.75C11.5 15.1642 11.1642 15.5 10.75 15.5C10.3358 15.5 10 15.1642 10 14.75ZM21.5 10.75C21.5 16.6871 16.6871 21.5 10.75 21.5C4.81294 21.5 0 16.6871 0 10.75C0 4.81294 4.81294 0 10.75 0C16.6871 0 21.5 4.81294 21.5 10.75Z" fill="white"/>
</svg>
