<svg width="22" height="21" viewBox="0 0 22 21" fill="none" xmlns="http://www.w3.org/2000/svg">
<path d="M9.17752e-07 9.19451V5.96892C8.54451e-07 5.02122 -0.000763677 4.27109 0.0419931 3.66912C0.085147 3.06168 0.175743 2.54121 0.389649 2.0656C0.669445 1.44367 1.09359 0.908033 1.63184 0.535326C2.0627 0.237011 2.53746 0.112408 3.06348 0.0548577C3.57243 -0.000809688 4.20002 0.000170107 4.95606 0.000170154C5.8762 0.000170154 6.57153 -0.0161795 7.19043 0.271655C7.87037 0.588026 8.31944 1.11807 8.64551 1.66814C8.96319 2.2041 9.20058 2.82487 9.41406 3.35466L9.76367 4.22283H14.2988C15.1756 4.22283 15.903 4.22109 16.4893 4.29509C17.0983 4.37197 17.6385 4.53845 18.1094 4.92888C18.4683 5.22651 18.7671 5.6012 18.9951 6.02458C19.3762 6.73242 19.4691 7.57298 19.5 8.64568C19.5117 9.05951 19.1854 9.40425 18.7715 9.41619C18.3576 9.42805 18.012 9.10256 18 8.68865C17.9694 7.62611 17.8734 7.10452 17.6748 6.73552C17.5304 6.46746 17.3506 6.2476 17.1523 6.08318C16.9796 5.93997 16.7495 5.83993 16.3018 5.78337C15.831 5.72396 15.2141 5.72283 14.2988 5.72283H5.75391C5.33994 5.7227 5.00414 5.38677 5.00391 4.97283C5.00391 4.55869 5.3398 4.22295 5.75391 4.22283H8.14649L8.02246 3.91521C7.78959 3.3373 7.59965 2.84635 7.35449 2.43279C7.1177 2.03342 6.86694 1.77593 6.55762 1.63201C6.31004 1.51689 6.01537 1.50017 4.95606 1.50017C4.16687 1.50017 3.63517 1.50138 3.22656 1.54607C2.83541 1.58887 2.63412 1.66479 2.48535 1.76775C2.1973 1.96721 1.93926 2.27761 1.75781 2.68083C1.64818 2.92459 1.57582 3.24447 1.53809 3.77556C1.5 4.31198 1.5 4.99969 1.5 5.96892V9.19451C1.5 11.6996 1.50105 13.5181 1.65137 14.9054C1.80085 16.2846 2.08906 17.1243 2.58008 17.7336C3.05229 18.3195 3.6716 18.6438 4.71289 18.8176C5.79531 18.9981 7.22569 19.0002 9.25684 19.0002H10.3203C10.7345 19.0002 11.0703 19.336 11.0703 19.7502C11.0703 20.1644 10.7345 20.5002 10.3203 20.5002H9.25684C7.27818 20.5002 5.70081 20.5028 4.4668 20.297C3.19173 20.0843 2.18567 19.6347 1.41211 18.675C0.657362 17.7385 0.322149 16.5616 0.160157 15.0666C-0.000976652 13.5795 9.17752e-07 11.6653 9.17752e-07 9.19451Z" fill="white"/>
<path d="M6.90625 8.00603H16.002C17.2169 8.00603 18.2106 8.00445 18.9727 8.11345C19.7518 8.22494 20.4464 8.47197 20.9287 9.09392C21.6853 10.07 21.5572 11.2757 21.2988 12.2248C21.0459 13.1539 20.5537 14.1854 20.3428 14.7472C19.896 15.9375 19.5432 16.8794 19.1855 17.6125C18.8219 18.3578 18.4256 18.9483 17.8594 19.4103C17.0125 20.1013 16.0037 20.3541 15.0547 20.4474C14.1294 20.5384 13.1305 20.4836 12.3643 20.4836H8.6875C6.93835 20.4836 5.54818 20.4857 4.48438 20.34C3.40579 20.1923 2.51206 19.8755 1.87695 19.1193C0.786909 17.8214 0.889355 16.1895 1.24805 14.799C1.60028 13.4337 2.30053 11.9756 2.64356 11.0617C2.85436 10.5001 3.02938 10.0314 3.20801 9.6613C3.3922 9.27978 3.60683 8.94548 3.92578 8.67204C4.42349 8.24541 5.00444 8.09261 5.51758 8.03533C6.0064 7.98078 6.54382 8.00601 6.90625 8.00603ZM6.90625 9.50603C6.43204 9.50601 6.06277 9.48341 5.68457 9.52556C5.33031 9.56509 5.08294 9.65505 4.90137 9.81072C4.79962 9.89801 4.69514 10.0308 4.55859 10.3136C4.4164 10.6082 4.26826 11.0018 4.04785 11.589C3.62604 12.7129 3.02902 13.8986 2.7002 15.173C2.37792 16.4223 2.41493 17.4275 3.02539 18.1545C3.3115 18.4951 3.76455 18.7272 4.6875 18.8537C5.62552 18.9822 6.89364 18.9836 8.6875 18.9836H12.3643C13.2529 18.9836 14.0789 19.0357 14.9072 18.9543C15.7121 18.8751 16.3868 18.676 16.9111 18.2482C17.2448 17.976 17.5247 17.5973 17.8379 16.9552C18.1571 16.301 18.4816 15.4371 18.9385 14.2199C19.2317 13.4387 19.6179 12.6884 19.8516 11.8302C20.0796 10.9925 20.0469 10.4047 19.7432 10.0129C19.6076 9.83799 19.3734 9.68657 18.7598 9.5988C18.1289 9.50858 17.2638 9.50603 16.002 9.50603H6.90625Z" fill="white"/>
</svg>
