<svg width="20" height="20" viewBox="0 0 20 20" fill="none" xmlns="http://www.w3.org/2000/svg">
<path d="M17.2918 10C17.2918 8.11635 17.2907 6.76633 17.1527 5.73975C17.0171 4.73122 16.7595 4.12908 16.3153 3.6849C15.8711 3.24071 15.2689 2.9831 14.2604 2.84749C13.2338 2.70947 11.8838 2.70833 10.0002 2.70833C8.11652 2.70833 6.76649 2.70947 5.73991 2.84749C4.73139 2.9831 4.12924 3.24071 3.68506 3.6849C3.24088 4.12908 2.98326 4.73122 2.84766 5.73975C2.70964 6.76633 2.7085 8.11635 2.7085 10C2.7085 11.8836 2.70964 13.2337 2.84766 14.2603C2.98326 15.2688 3.24088 15.8709 3.68506 16.3151C4.12924 16.7593 4.73139 17.0169 5.73991 17.1525C6.76649 17.2905 8.11652 17.2917 10.0002 17.2917C11.8838 17.2917 13.2338 17.2905 14.2604 17.1525C15.2689 17.0169 15.8711 16.7593 16.3153 16.3151C16.7595 15.8709 17.0171 15.2688 17.1527 14.2603C17.2907 13.2337 17.2918 11.8836 17.2918 10ZM5.2085 14.1667V10.8333C5.2085 10.4882 5.48832 10.2083 5.8335 10.2083C6.17867 10.2083 6.4585 10.4882 6.4585 10.8333V14.1667C6.4585 14.5118 6.17867 14.7917 5.8335 14.7917C5.48832 14.7917 5.2085 14.5118 5.2085 14.1667ZM9.37516 14.1667V5.83333C9.37516 5.48815 9.65499 5.20833 10.0002 5.20833C10.3453 5.20833 10.6252 5.48815 10.6252 5.83333V14.1667C10.6252 14.5118 10.3453 14.7917 10.0002 14.7917C9.65499 14.7917 9.37516 14.5118 9.37516 14.1667ZM13.5418 14.1667V9.16667C13.5418 8.82149 13.8217 8.54167 14.1668 8.54167C14.512 8.54167 14.7918 8.82149 14.7918 9.16667V14.1667C14.7918 14.5118 14.512 14.7917 14.1668 14.7917C13.8217 14.7917 13.5418 14.5118 13.5418 14.1667ZM18.5418 10C18.5418 11.8481 18.543 13.2971 18.3913 14.4263C18.237 15.5735 17.9142 16.4837 17.1991 17.1989C16.4839 17.9141 15.5736 18.2369 14.4264 18.3911C13.2972 18.5429 11.8483 18.5417 10.0002 18.5417C8.15205 18.5417 6.70308 18.5429 5.57389 18.3911C4.42668 18.2369 3.51643 17.9141 2.80127 17.1989C2.0861 16.4837 1.76329 15.5735 1.60905 14.4263C1.45728 13.2971 1.4585 11.8481 1.4585 10C1.4585 8.15189 1.45728 6.70291 1.60905 5.57373C1.76329 4.42652 2.0861 3.51627 2.80127 2.80111C3.51643 2.08594 4.42668 1.76312 5.57389 1.60889C6.70308 1.45711 8.15205 1.45833 10.0002 1.45833C11.8483 1.45833 13.2972 1.45711 14.4264 1.60889C15.5736 1.76312 16.4839 2.08594 17.1991 2.80111C17.9142 3.51627 18.237 4.42652 18.3913 5.57373C18.543 6.70291 18.5418 8.15189 18.5418 10Z" fill="#6B6B6B"/>
</svg>
