<svg width="35" height="25" viewBox="0 0 35 25" fill="none" xmlns="http://www.w3.org/2000/svg">
<rect x="0.5" y="0.5" width="34" height="24" rx="3.5" fill="white"/>
<rect x="0.5" y="0.5" width="34" height="24" rx="3.5" stroke="#424242"/>
<path d="M16.5625 16.875V13.4375H13.125C12.6072 13.4375 12.1875 13.0178 12.1875 12.5C12.1875 11.9822 12.6072 11.5625 13.125 11.5625H16.5625V8.125C16.5625 7.60723 16.9822 7.1875 17.5 7.1875C18.0178 7.1875 18.4375 7.60723 18.4375 8.125V11.5625H21.875C22.3928 11.5625 22.8125 11.9822 22.8125 12.5C22.8125 13.0178 22.3928 13.4375 21.875 13.4375H18.4375V16.875C18.4375 17.3928 18.0178 17.8125 17.5 17.8125C16.9822 17.8125 16.5625 17.3928 16.5625 16.875Z" fill="#182230"/>
</svg>
