<svg width="20" height="20" viewBox="0 0 20 20" fill="none" xmlns="http://www.w3.org/2000/svg">
<path d="M12.5044 1.24555C9.06978 1.24555 6.25445 4.06088 6.25445 7.49555C6.25445 8.98868 6.8063 10.3476 7.68999 11.4262L1.43755 17.6787C1.3776 17.7363 1.32974 17.8052 1.29678 17.8815C1.26381 17.9578 1.24641 18.04 1.24558 18.1231C1.24474 18.2063 1.2605 18.2887 1.29193 18.3657C1.32336 18.4426 1.36983 18.5126 1.42861 18.5714C1.4874 18.6302 1.55733 18.6767 1.63429 18.7081C1.71126 18.7395 1.79372 18.7552 1.87685 18.7544C1.95998 18.7536 2.04211 18.7362 2.11844 18.7032C2.19476 18.6702 2.26374 18.6224 2.32134 18.5624L8.57378 12.31C9.65241 13.1937 11.0113 13.7456 12.5044 13.7456C15.9391 13.7456 18.7544 10.9302 18.7544 7.49555C18.7544 4.06088 15.9391 1.24555 12.5044 1.24555ZM12.5044 2.49555C15.2573 2.49555 17.5044 4.74271 17.5044 7.49555C17.5044 10.2484 15.2573 12.4956 12.5044 12.4956C9.75161 12.4956 7.50445 10.2484 7.50445 7.49555C7.50445 4.74271 9.75161 2.49555 12.5044 2.49555Z" fill="white"/>
</svg>
