<svg width="20" height="20" viewBox="0 0 20 20" fill="none" xmlns="http://www.w3.org/2000/svg">
<path d="M1.0415 10.5558C1.0415 8.28798 2.70375 6.42268 4.88021 5.99528C5.33416 3.63605 7.46782 1.875 9.99984 1.875C12.7952 1.875 15.1058 4.02392 15.2033 6.7513C17.3113 7.04298 18.9582 8.79938 18.9582 10.9587C18.958 13.3255 16.9792 15.2083 14.5832 15.2083C14.238 15.2083 13.9582 14.9285 13.9582 14.5833C13.9582 14.2382 14.238 13.9583 14.5832 13.9583C16.3291 13.9583 17.708 12.5956 17.7082 10.9587C17.7082 9.48399 16.5892 8.23116 15.091 7.99723C14.9117 8.80685 14.5344 9.54373 14.0111 10.1563C13.7869 10.4186 13.3922 10.4494 13.1297 10.2254C12.8673 10.0012 12.8363 9.60652 13.0605 9.34408C13.5523 8.7685 13.8692 8.05477 13.9419 7.27539C13.9525 7.16197 13.9582 7.04672 13.9582 6.93034C13.958 4.84849 12.206 3.125 9.99984 3.125C8.16584 3.125 6.64366 4.31771 6.18392 5.91553C7.1222 5.98155 7.9881 6.31003 8.70101 6.8278C8.98015 7.03068 9.04215 7.42178 8.83936 7.70101C8.63648 7.98009 8.24536 8.0421 7.96615 7.83936C7.37418 7.40943 6.63663 7.15251 5.83317 7.15251C5.7175 7.15251 5.60308 7.15843 5.49056 7.16878C3.67812 7.33563 2.2915 8.80491 2.2915 10.5558C2.29166 12.4152 3.85712 13.9583 5.83317 13.9583C6.17835 13.9583 6.45817 14.2382 6.45817 14.5833C6.45817 14.9285 6.17835 15.2083 5.83317 15.2083C3.20704 15.2083 1.04166 13.1452 1.0415 10.5558Z" fill="white"/>
<path d="M9.96077 11.3216C10.1512 11.034 10.5389 10.9548 10.8267 11.145C11.1146 11.3354 11.1936 11.7238 11.0033 12.0117L9.71582 13.9583H10.6354C10.7924 13.9583 10.9827 13.9565 11.1367 13.9795C11.2733 13.9999 11.5337 14.0605 11.7129 14.2944L11.7837 14.4059L11.8358 14.5264C11.9289 14.8045 11.8353 15.0534 11.7772 15.1774C11.7112 15.3183 11.6049 15.4759 11.5176 15.6079L10.0389 17.8451C9.84845 18.1327 9.46082 18.2119 9.17301 18.0216C8.88506 17.8313 8.80607 17.4429 8.99642 17.1549L10.2839 15.2083H9.36426C9.20729 15.2083 9.01692 15.2101 8.86296 15.1872C8.70688 15.1639 8.38953 15.0877 8.21598 14.7607C8.04349 14.4357 8.15614 14.1309 8.22249 13.9893C8.28848 13.8484 8.39482 13.6908 8.4821 13.5588L9.96077 11.3216Z" fill="white"/>
</svg>
