<svg width="24" height="24" viewBox="0 0 24 24" fill="none" xmlns="http://www.w3.org/2000/svg">
<path d="M14.7 6H7.905C8.1945 5.499 8.6235 5.091 9.141 4.827C9.783 4.5 10.623 4.5 12.306 4.5H14.706C16.386 4.5 17.226 4.5 17.871 4.827C18.435 5.115 18.894 5.574 19.182 6.138C19.509 6.78 19.509 7.62 19.509 9.303V11.703C19.509 13.383 19.509 14.223 19.182 14.868C18.9187 15.3847 18.5112 15.814 18.009 16.104V9.309C18.009 8.4435 18.009 7.8855 17.973 7.464C17.94 7.056 17.883 6.906 17.8455 6.831C17.7017 6.54877 17.4722 6.31931 17.19 6.1755C17.115 6.138 16.965 6.081 16.557 6.048C15.9426 6.01374 15.3272 6.00174 14.712 6.012L14.7 6Z" fill="white"/>
<path fill-rule="evenodd" clip-rule="evenodd" d="M4.5 12.3C4.5 10.62 4.5 9.78 4.827 9.135C5.115 8.571 5.574 8.112 6.138 7.824C6.78 7.497 7.62 7.497 9.303 7.497H11.703C13.383 7.497 14.223 7.497 14.868 7.824C15.432 8.112 15.891 8.571 16.179 9.135C16.506 9.777 16.506 10.617 16.506 12.3V14.7C16.506 16.38 16.506 17.22 16.179 17.865C15.8914 18.4295 15.4325 18.8884 14.868 19.176C14.226 19.503 13.386 19.503 11.703 19.503H9.303C7.623 19.503 6.783 19.503 6.138 19.176C5.57354 18.8884 5.11462 18.4295 4.827 17.865C4.5 17.223 4.5 16.383 4.5 14.7V12.3ZM9.3 9H11.7C12.5655 9 13.1235 9 13.545 9.036C13.953 9.069 14.103 9.126 14.178 9.1635C14.46 9.3075 14.6895 9.537 14.8335 9.819C14.871 9.894 14.928 10.044 14.961 10.452C14.9955 10.8765 14.997 11.436 14.997 12.297V14.697C14.997 15.5625 14.997 16.1205 14.961 16.542C14.928 16.95 14.871 17.1 14.8335 17.175C14.6897 17.4572 14.4602 17.6867 14.178 17.8305C14.103 17.868 13.953 17.925 13.545 17.958C13.1205 17.9925 12.561 17.994 11.7 17.994H9.3C8.4345 17.994 7.8765 17.994 7.455 17.958C7.047 17.925 6.897 17.868 6.822 17.8305C6.53977 17.6867 6.31031 17.4572 6.1665 17.175C6.129 17.1 6.072 16.95 6.039 16.542C6.00474 15.9276 5.99274 15.3122 6.003 14.697V12.297C6.003 11.4315 6.003 10.8735 6.039 10.452C6.072 10.044 6.129 9.894 6.1665 9.819C6.3105 9.537 6.54 9.3075 6.822 9.1635C6.897 9.126 7.047 9.069 7.455 9.036C7.8795 9 8.439 9 9.3 9Z" fill="white"/>
</svg>
